<svg xmlns="http://www.w3.org/2000/svg" width="128" height="128" viewBox="0 0 128 128">
  <defs>
    <linearGradient id="discordBlue" x1="0%" y1="0%" x2="100%" y2="100%">
      <stop offset="0%" stop-color="#5865F2"/>
      <stop offset="100%" stop-color="#4752C4"/>
    </linearGradient>
  </defs>

  <!-- Exakter Discord Clyde Pfad -->
  <path 
    fill="url(#discordBlue)"
    d="M108.3,21.9c-10.9-5-22.5-8.7-34.7-10.9c-0.5-0.1-1,0.2-1.2,0.7c-1.5,3.3-2.9,6.8-4.1,10.3
    c-13.1-2-26.3-2-39.4,0c-1.2-3.5-2.6-7-4.1-10.3c-0.2-0.5-0.7-0.8-1.2-0.7c-12.1,2.2-23.8,5.9-34.7,10.9
    c-0.4,0.2-0.7,0.5-0.9,0.9C2.5,51,0.1,77,2.5,102.5c0,0.6,0.4,1.1,0.9,1.4c12.4,8.6,26.2,15,40.5,18.9c0.6,0.2,1.2-0.1,1.5-0.6
    c2.8-4.9,5.4-10,7.6-15.2c0.3-0.7-0.1-1.5-0.8-1.7c-4.5-1.5-8.9-3.5-13.1-5.7c-0.7-0.4-0.8-1.3-0.2-1.8c0.9-0.7,1.8-1.4,2.7-2.1
    c0.6-0.5,1.4-0.4,1.9,0.1c13.9,9.7,32.6,9.7,46.5,0c0.5-0.4,1.3-0.5,1.9-0.1c0.9,0.7,1.8,1.4,2.7,2.1c0.6,0.5,0.5,1.5-0.2,1.8
    c-4.2,2.2-8.6,4.2-13.1,5.7c-0.7,0.2-1.1,1-0.8,1.7c2.2,5.2,4.8,10.3,7.6,15.2c0.3,0.5,0.9,0.8,1.5,0.6
    c14.3-3.9,28.1-10.3,40.5-18.9c0.5-0.3,0.9-0.8,0.9-1.4C128,73,125.1,47.1,109.2,22.8C108.9,22.4,108.6,22.1,108.3,21.9z
    M46.2,88c-7,0-12.7-6.3-12.7-14.1c0-7.8,5.6-14.1,12.7-14.1c7.1,0,12.8,6.3,12.8,14.1C59,81.7,53.3,88,46.2,88z M84.9,88
    c-7,0-12.7-6.3-12.7-14.1c0-7.8,5.6-14.1,12.7-14.1c7.1,0,12.8,6.3,12.8,14.1C97.7,81.7,92,88,84.9,88z"
  />
</svg>